<?xml version="1.0" encoding="UTF-8"?>
<svg id="Ebene_1" xmlns="http://www.w3.org/2000/svg" version="1.1" viewBox="0 0 567.25 591.13">
  <!-- Generator: Adobe Illustrator 29.8.1, SVG Export Plug-In . SVG Version: 2.1.1 Build 2)  -->
  <path d="M431.81,52.29c7.36,4.96,24.03,22.02,28.69,29.79s8.63,18.76,12.73,27.27c2.63,5.46,8.02,12.61,9.94,18.06s.95,16.84,4.85,20.15c1.22,1.04,10.64,4.19,12.56,4.44,15.6,1.96,26.54-6.44,43.23,1.77,7.27,3.58,19.46,17.46,21.82,25.18,4.83,15.86-1.64,71.42-12.97,84.07-3.25,3.63-9.35,6.04-13.05,8.95-2.5,1.97-7.54,8.62-9.51,9.49-2.15.95-4.96.36-7.72,1.28-3.09,1.02-8.77,5.62-12.57,7.43-7.84,3.73-16.64,6.41-24.76,10.24-8.69,4.11-15.33,4.94-24.21,7.79-2.81.9-5.54,3.36-8.32,3.73-9.43,1.26-24.64-2.59-35.68-.73-6.45,1.09-16.63,6.78-24.47,8.53-4.52,1.01-8.62.42-14.02,1.98-7.73,2.24-12.49,7.64-20.76,1.28-2.79-16.66,5.53-12.52,15.91-14.12,19.72-3.04,35.76-11.16,56.12-12.88,5.2-.44,10.78.44,15.97-.03,9.89-.88,35.4-10.41,45.48-14.52,11.86-4.83,44.22-20.99,50.46-31.54,3.08-5.2,7.83-21.49,9.86-28.14,5.36-17.54,12.14-35.08.13-51.7-1.34-1.86-6.35-7.02-8.36-7.64-2.43-.75-24.8-1.92-27.51-1.4-4.72.9-13.85,6.33-19.01,6.98-3.59.45-13.41-.58-16.03-3.02-.83-.77-1.15-2.83-2.05-3.95-6.81-8.46-4.83-10.92-7.97-20.03-9-26.05-20.94-47.79-41.52-65.48-4.83-4.15-5.07-8.43-12.54-9.45-5.02-.69-9.47-.17-14.1,1.72-2.19.89-4.67,3.33-6.27,3.76-2.11.57-4.51-1.21-7.32-.39-.58.17-8.54,7.15-9.15,7.89-6.05,7.31-5.21,18.06-7.61,26.39-8.86,30.71-8.45,50.55-8.92,82-.29,19.51-2.58,33.69-6.51,52.58-2.63,12.66-4.5,22.5-6.65,35.35-2.82,16.85-15.81,28.76-11.67,46.91.24,1.04,9,15.56,10.37,17.63,5.51,8.33,6.68,4.25,14.75,4.46,21.31.57,41.57,3.21,63.05,1.5,3.25-.26,6.6-1.75,10.09-1.91,24.41-1.15,72.54,6.99,89.97,25.1,16.82,17.48,21.16,38.2,17.51,62.37-.84,5.56-5.98,11.6-8.35,16.65-3.68,7.82-2.55,10.56-11.09,16.91-5.95,4.43-8.1,2.75-13.76,4.24s-14.45,6.59-20.51,8.49c-5.83,1.84-12.66,1.75-18.2,3.8-5.2,1.93-5.98,2.96-12.27,4.73-8.96,2.52-15.77,3.23-16.8,14.2-1.6,17.08,5.04,41.43-.93,56.07-1.06,2.6-2.52,4.52-4.69,6.31-20.74,17.09-60.11,29.95-86.83,28.14-24.07-1.63-21.78-10.24-36.98-21.02-1.41-1-3.45-.82-4.45-1.55-9.42-6.82-10.51-15.63-18.92-23.12,1.72-20.39-3.75-39.69-2.14-60.79.45-5.87,2.93-12.92,3.04-18.99.09-5.21-1.48-9.67-1.04-15.02.49-5.9,3.7-12.93,4.71-19.28,1.43-9,2.65-18.1,3.98-27.02,1.09-7.36,3.13-19.5,1.09-26.5-2.22-7.66-15.76-5.13-21.79-6.7-1.45,7.33,5.13,13.72,6.76,19.74,1.04,3.85,3.47,29.63,3.16,33.63-.58,7.44-6.99,17.37-9.46,24.6-3.28,9.61-4.48,18.66-9.29,28.71-6.57,13.72-8.51,16.59-13.23,31.77-2.14,6.87-5.25,15.64-10.45,20.55-1.8,1.7-4.59,2.65-6.51,4.49-15.96,15.33-21.16,27.54-40.9,41.1-1.57,1.08-8.23,7.28-8.79,7.39-2.15.43-15.09,1.9-16.67,1.73-7.12-.76-34.2-2.86-38.89-4.95-4.93-2.19-9.93-7.6-16.54-7.97-.65-6.06-6.46-11.79-8.1-17.39-1.8-6.15-1.95-30.09-1.12-36.93,1.02-8.4,12.71-25.18,15.56-33.44,1.75-5.08.78-11.37,1.69-16.31.55-2.96,6.13-10.48-.73-11.73-5.12-.93-14.27.18-20.04.05-28.2-.62-42.86-6.05-68.17-17.84-11.33-5.28-9.58-6.75-15.11-15.89-9.03-14.94-13.59-24.3-18.88-41.12s-1.3-25.87,9.72-39.68c22.15-27.75,35.49-30.59,70.44-31.47,22.54-.57,37.52-2.35,59.31-7.78,15.62-3.89,33.27-3.22,48.8-5.19,26.17-3.31,44.18,25.71,63.54,36.3,3.84,2.1,8.99,2.78,12.4,5.6,3.23,2.66,6.06,8.39,9.98,11.02,6.72,4.52,18.16,7.85,25.43,11.57,1.3.66,6.82,3.73,7.41,4.34,2.68,2.78.56,13.01.81,17.45.32,5.78,3.77,13.08,3.94,17.13.44,10.28-4.98,25.01-6.08,34.98-1.17,10.64,2.66,19.89,2.04,29.05-.35,5.12-2.95,11.04-3.06,16.02-.29,13.33-.29,37.14,2.07,49.9.46,2.48,9,18.79,10.93,21.07,5.78,6.81,11.54,9.12,17.93,14.07,1.35,1.05,1.97,3.29,3.56,4.44,5.1,3.69,17.79,3.2,24.07,3.01,16.93-.51,47.48-8.57,57.89-23.11,12.74-17.78.76-41.06,2.51-59.5.35-3.72,1.34-4.67,3.55-7.44,1.33-1.67,15.17-14.42,16.19-14.81.76-.29,1.55-.2,2.33-.17l.47,1.97c10.59-5.16,23.08-4.03,33.79-6.21,3.79-.77,30-12.05,32.76-14.24,6.89-5.49,15.55-21.67,16.72-30.28,3.43-25.31-18.37-50.41-42.32-55.16-2.69-.53-5.77.29-8.7-.3-4.78-.96-12.8-6.63-18.23-6.86-10.47-.43-22.33,1.88-32.95,2.13-22.64.52-52.23-3.68-72.96-.96-3.03.4-7.84,3.24-10.63,2.49s-6.2-11.4-8.1-14.93c-3.67-6.8-12.22-17.5-13.63-24.37-4.07-19.75,6.48-26.13,10.34-42.22,2.34-9.76,1.88-21.29,3.71-31.29,2.44-13.34,8.24-26.07,9.61-40.39,4.06-42.41-1.25-85.23,14.35-126.65,7.89-20.95,19.14-29.91,41.28-31.72,8.76-.72,20.78-1.68,28.19,3.31h-.03ZM232.42,332.66c-2.97-2.25-11.3-11.59-14.56-12.93-2.33-.96-4.74-.44-6.79-1.21-3.01-1.13-6.1-4.45-9.68-5.32-12.52-3.05-41.99-.8-54.55,2.01-9.77,2.19-19.94,7.88-30.23,7.86-12.29-.03-14.27,1.45-25.08,2.82-7.78.99-30.98-2.23-35.35.65-6.55,4.32-20.64,15.2-25.48,21.52-3.15,4.11-4.5,9-8.43,12.61,2.3,8.61,1.44,21.27,4.3,29.35.66,1.86,2.49,2.79,2.99,4.01,2.73,6.63,4.8,16.21,11.22,20.78,4.49,3.2,24.27,11.84,30.11,13.91,1.61.57,3.83-.18,5.02.47.65.35,2.16,4.78,4.91,5.58l37.75,3.25c9.45,1.79,23.69-4.01,31.47,1.53,6.91,4.92,6.61,7.71,4.35,15.21-5.32,17.7-14.22,37.48-21.45,54.55-3.63,8.56-5.41,14.65-5.87,24.13-.52,10.8-.81,17.74,8.04,25.11l3.47-1.58c2.19,6.06,3.02,3.16,7.79,4.24,5.37,1.22,13.62,4.95,18.29,5.71,8.6,1.39,12.99-1.03,20.11-4.77,49.03-25.72,56.23-67.07,76.54-112.46,3.15-7.03,6.28-39.74,5.66-48.09-.48-6.46-8.05-36.58-11.82-40.18-2.38-2.27-6.45-2.76-7.84-6.16l-1.19-12.29,2.98,3c1.04-5.35-1.62-3.71-4.89-5.6-3.09-1.79-9.03-5.62-11.79-7.71h0Z"/>
  <path d="M142.11,57.98c-2.1,14.25-12.97,8.11-22.03,10.46-3.93,1.02-15.84,8.15-19,11-3.74,3.37-4.59,9.29-8.58,13.42-3.3,3.43-8.08,6.13-11.9,10.1-12.49,12.96-21.67,25.11-34.98,38.02-9.47,9.19-19.42,28.31-21.45,41.55-.71,4.62.69,10.41-.12,14.88-1.43,7.91-1.92,3.73-1.26,13.19.52,7.51-2.28,11.74,2.48,18.7,3.05,4.46,18.34,14.25,23.58,15.43,3.88.87,9.72.4,13.54,1.46,3.26.91,4.41,3.94,6.46,4.57,22.24,6.82,55.09-1.65,78.81,1.26,3.43.14,7-5.18,9.96-5.01,1.23.07,2.17,1.42,3.19,1.59,8.35,1.38,12.05,7.09,18.25,8.92,3.69,1.09,8.5.15,12.49,1.51,3.47,1.18,4.75,4.75,9.57,2.43,4.46-2.14,1.36-13.63,9.24-12.33.86.14,7.53,2.97,7.85,3.48,1.08,1.71,1.36,6.95,2.19,9.57,2.84,8.9,8.43,15.25,3.14,24.71-.6,1.07-6.23,6.71-7.13,6.94-2.72.71-11.02-7.12-15.26-8.4-12-3.61-22.73-8.56-35.25-12.75-5.19-1.74-12.36-5.94-17.37-6.63-4.42-.61-26.55-2.06-29.8-.94-1.35.46-1.27,2.63-2.31,2.88-27.83,6.72-70.01-1.01-93.89-13.91-1.81-.98-4.4-1.21-5.83-2.21-.51-.36-5.96-10.26-6.15-10.85-2.06-6.4.8-15.13.57-21.52-.4-11.09-7.77-25.52-7.08-36.03.13-1.93,5.5-17.72,6.59-20.49,6.92-17.52,22.8-26.17,33.3-41.7,2.62-3.87,3.85-9.13,7.18-12.82,9.67-10.7,31.31-32.32,42.5-40.5,8.1-5.92,19.46-8.84,29.1-9.91,2.97-.33,18.25-1.76,19.39-.09v.02Z"/>
  <path d="M314.49,36.6c2.3,3.99,7.45,8.82,8.19,14.31.33,2.47-.81,5.45-.57,8.53.98,12.85,5.72,24.52,3.92,37.93-2.84,21.13-3.03,36.91-2.93,58.09.06,13.06-3.17,22.08-4.02,33.95-.55,7.63.34,25.09,1.05,33.02.64,7.14,4.13,14.2,4.86,21.14.74,6.96-1.81,38.57-5.45,43.3-1.02,1.32-3.26,1.73-3.93,3.07-.84,1.69-.33,4.14-.94,6.06-1.54,4.83-4.25,14.97-8.62,17.38-6.8,3.74-16.67,5.77-24.37,4.53-3.16-.51-5.33-3.47-9.16-3.89s-6.36,1.29-10.43.52c-2.24-.42-10.84-4.05-11-6.07-1.07-14.08,14.27-16.28,25.04-15.52.15,1.96-.73,5.29.97,6.53.32.24,7.21,2.47,7.61,2.49,2.72.17,8.65-6.28,10.16-8.77,2.81-4.63,7.43-19.27,8.24-24.76,3.46-23.5-.48-47.51-1.98-71-.89-13.91,2.02-31.41,1.91-46.97-.2-27.34,7.21-53.46,3.96-80.89-2.82-23.85-14.54-36.05-21.81-57.19-.35-1.01-2.32-3.18-2.07-3.42,5.44-1.64,11.3-1.22,15.5,2.99,2.23,2.24,2.58,5.33,4.48,7.52,6.33,7.29,6.65,8.86,11.4,17.12h0Z"/>
  <path d="M240.11,1.98c-.46,5.29-7.22,3.8-11.44,5.04-10.62,3.13-11.24,6.89-18.18,10.82-2.66,1.5-5.04,1.44-8.28,3.72-14.5,10.13-17.1,38.95-12.58,54.41,3.27,11.19,7.36,22.75,12.25,33.75,1.26,2.83,5.5,5.08,6.19,8.81.9,4.86-1.29,19.05-8.19,18.3-10.54-1.15-11.9-10.14-17.79-17.31-4.43-5.39-10.69-10.27-15.48-15.52-7.61-8.32-4.01-8.22-15.45-13.55-.48-.22-7.81-6.45-8.11-6.89-2.66-3.99.83-13.05,5.82-14.32,13.78-3.52,12.19,7.68,21.74,12.74,2.19-.39,1.25-15.83,1.52-18.49.29-2.85,1.61-5.45,1.89-8.11.93-8.81.75-17.76,2.56-26.44,1.1-3.22,12.73-11.95,16.03-14.97,1.8-1.64,2.75-4.11,5-6,6.71-5.61,9.74-3.03,16.9-4.1,8.95-1.34,16.25-6.72,25.6-1.88h0Z"/>
</svg>