<?xml version="1.0" encoding="UTF-8"?>
<svg id="Layer_1" data-name="Layer 1" xmlns="http://www.w3.org/2000/svg" viewBox="0 0 90 143.59">
  <path d="M89.98,53.57c-.23-1.24-4.13-3.81-5.19-4.85-1.06-1.04-5.27-6.7-5.87-6.97-.61-.26-1.41.04-2.06-.54-.92-.04,1.71,2.12,1.84,2.29.34.44.66,1.11,1,1.62.54.82,1.42,1.05.93,2.49-.35,1.01-1.81.11-2.36-.17-1.58-.81-2.83-2.11-4.68-2.3-2.63-.26-3.68.09-6.1-1.53-.5-.34-.71-1.05-.76-1.09-.25-.17-1.24,1.07-1.95.65,0-2.02,2.39-2.33,4-2.15,2.19.24,1.71.54,4.18.21.88-.12,2.7.44,2.12-1.04-.2-.54-3.59-1.11-4.31-1.16-2.35-.18-4.81.05-7.08.66.18-1.32-.25-.67-1.09-.97-5.55-1.98-5.69-7.99-6.58-12.8-.25-1.31-.9-2.67-1.03-3.99-.26-2.71.2-5.41-.28-8.23-.23-1.33-2.15-7.9-2.77-8.77-.95-1.34-5.9-3.74-7.53-3.8-1.54-.05-1.38.69-2.16,1.29-1.9,1.46-4.67,2.72-5.81,5.08-.44.92-.71,6.23-.62,7.46.28,3.4.22,6.5.44,9.81.12,1.72.96,4.02.66,5.65-.29,1.51-4.39,1.75-5.66,1.64.06-1.9.02-3.62-.28-5.49-.51-3.2-2.08-6.21-2.52-9.24-.27-1.84-.02-4.06-.29-5.8-.19-1.2-2.66-7.06-3.43-7.9-.53-.56-2.97-2.19-3.7-2.41-.47-.14-.99-.03-1.37-.15-2.95-.99-3.28-1.73-6.47-.05C4.85,5.37,1.14,17.63,3.76,26.34c.38,1.27,1.54,2.67,1.75,3.91.18,1.09.11,4.43-.42,5.36-.36.63-1.13.42-1.47.93-.59.86-.25,2.57-1.76,3.26-.73.33-1.31-.55-1.4.3-.2,1.77,1.47.68,1.73,1.1.38,4.54-1.5,8.93-1.85,13.41-.35,4.48-.74,12.55.49,16.72.56,1.91,2.1,4.45,2.46,6.27.15.8,0,1.53.12,2.27.34,2.11,1.55,3.68,2.04,5.58.49,1.9.16,3.86.64,5.68.46,1.76,2.01,3.9,2.62,5.67.62,1.77.66,3.8,1.13,5.62.11.41.74,3.06,1.19,1.91.38-.98-.32-1.64-.44-2.66-.11-.92.06-1.88-.05-2.79-.32-2.6-2.15-6.47-2.58-9.18-.15-.98.26-1.74.22-2.6-.05-.93-.75-2.14-.86-3.08-.24-1.99.06-1.32-.62-3.31-.39-1.13-.34-2.52-.64-3.72-.74-2.91-2.81-6.64-3.23-9.4-.23-1.47-.05-2.99-.1-4.48-.09-2.34-.02-2.68.22-5.01.09-.98-.08-2.03.03-3.02.18-1.66,1.12-3.58,1.28-5.26.25-2.66.05-6.26,0-8.93-.03-1.73.15-2.37,1.41-3.6.97-.96,1.9-.83,2.07-2.5.5-4.7-.43-5.23-1.84-9.04-.95-2.57-.73-9.72-.05-12.47.84-3.45,6.29-9.05,9.47-10.58,1.05-.51,1.55.28,2.54.61,1.04.35,3.01.63,3.81.98.4.17.91,1.04,1.18,1.43,3.01,4.3,2.73,6.09,3.17,11,.3,3.35,1.39,5.01,2.24,8,1.43,5.02.3,12.36,2.52,16.87.54,1.1,1.73,3.31,2.86,3.67,2.43.79,5.33,1.22,7.74,2.06,3.12,1.09,3.13,2.45,5.35,4.24,5,4.03,9.49,4.25,15.54,4.7,1.95.15,3.58.82,5.41,1.33.9.25,2.94.14,3.15,1.23.15.75-1.82,1.36-2.46,1.58-5.21,1.75-10.72.38-15.9-.43-3.21-.5-2.42-.87-4.77-1.76-1.25-.48-2.88-.51-4.25-.97-3.84-1.31-7.65-4.16-11.33-5.45-.64-.22-2.1-.74-2.36.25-.22.84.86.73,1.33,1,3.08,1.73,5.97,3.43,9.09,5.07.83.43,1.89,1.43,2.67,1.69.7.23,1.28.07,1.91.26.17.05,3.01,1.51,3.13,1.63.17.16-.26.67.24.88.39.16.29-.32.37-.37.18-.12,3.38.3,3.91.44.9.24,1.72.27,1.05,1.36-3.34,3.38-7.71,9.56-12.76,10.32-1.28.2-8.07-.29-8.55.48-.54.87,1.27,1.43,1.92,1.61,2.39.64,6.23.88,8.55.06,4.93-1.73,6.33-3.99,9.72-7.48.64-.66,4.35-3.97,4.48-4.25.41-.91-1.07-1.29-.22-1.95.53-.03,1.95,1.08,2.16,1.11,2.55.32,7.61.05,10.02-.89.86-.34,1.85-1.17,2.62-1.29,1.41-.23,3.28.08,4.77-.02,2.72-.19,7.53-.57,9.76-2,1.47-.94,4.35-4.35,4.03-6.12ZM81.3,55.91c-3.05.93-9.6.05-12.8-.69-1.29-.3-3.12-1.22-4.08-1.37-1.43-.22-3.28.13-4.78,0-3.46-.33-8.03-1.63-10.84-3.74-1.45-1.08-2.41-2.78-3.91-3.71-1.12-.68-3.59-1.62-4.89-2.08-3.49-1.25-6.04-.72-7.62-4.79-.31-.79-1.15-5.08-.84-5.51.39-.54,2.73.27,3.45.18.83-.1,1.84-1.46,2.44-1.47.4,0,.84.52,1.28.44.09-.02,1.15-1.39,1.18-1.48.45-1.53-.24-3.89-.4-5.41-.12-1.13.18-.44-.32-1.63-.3-.74-.05-2.24-.11-3.15-.41-6.35-.45-8.56,2.21-14.36.71-1.53,1.64-2.98,3.56-2.99,1.49,0,4.76,1.72,5.44,3.07.77,1.52,2.19,7.5,2.3,9.25.33,5.16.67,10.7,1.89,15.76.2.83,1.56,4.95,1.92,5.48.74,1.13,4.5,2.93,4.85,4.09-.04,1.63.49,2.89-.02,4.47-.35,1.11-2.35,3.21-2.33,3.78,0,.61,1.75.88,1.94.74.09-.07.08-.59.28-.8.17-.17.64-.22.94-.49,1.58-1.47,1.63-2.81,2.28-4.79,1.7.36,2.84,1.92,4.48,2.39,1.64.46,3.18.05,4.78.23.8.09,5.11,2.02,5.99,2.5,2.01,1.1,1.06,2.53,1.62,3.4.34.54,1.64-.11,1.63,1.43,0,.88-.81,1.07-1.51,1.28Z"/>
  <path d="M65.05,101.94c1.08,2.41.06,5.62.14,8.22.03,1.11.43,1.86.44,3.49.03,3.92.22,8.11.45,11.98.03.51.54.97.63,1.55.6,3.75-1.08,7.97-.85,11.71-1.78,1.63-3.06,1.13-5.18.65-.63-.28-2.86-4.58-3.08-5.41-.87-3.24.34-7.96.64-11.32.08-.91-.11-1.96,0-2.83.04-.3.15-.67.43-.32.37,1.27-.06,2.32,0,3.59.08,1.7.51,3.55.65,5.23.18,2.19-.38,5.76,1.19,7.53.21.24,2.02,1.68,2.22,1.7.87.08,1.09-2.09,1.16-2.7.65-6.44-.1-12.95-.44-19.38-.53-10.17-.8-18.99-.42-29.2.17-4.51-.56-9.18-.67-13.73-.02-.71.01-4.07.81-4.27.47-.11,1.82-.14,1.81.55.14,2.71-.18,5.59,0,8.28.13,1.9.76,3.95.88,5.88.2,3.17-.9,5.41-1.11,8.29-.08,1.08.67,1.93.67,2.83,0,1.15-.53,7.33-.37,7.68Z"/>
  <path d="M55.19,101.13h-.65c.13-1.17-.91-1.92-1.46-3-.6-1.19-1.25-2.71-1.69-3.98-.2-.58-.24-1.58-.44-1.95-.22-.41-.77.25-.86.45-1.11,2.41.23,8.65.53,11.43.64,5.85,1.26,11.69.65,17.65-.17,1.64-.8,3.49-.88,5.01-.18,3.82.62,6.06-.34,10.12-.27,1.17.36,3.1-1.51,3.09-1.25,0-1.66-1.3-2.1-2.27-1.97-4.34-1.37-8.36-1.71-12.89-.2-2.79-1.1-6.01-1.1-8.72,0-.87.48-1.49.67-2.29,1.28.15.65,1.02.69,1.63.19,2.97.37,4.93,1.11,7.78s.52,4.66.81,7.47c.09.86.64,1.88.67,2.4.03.64-.7,1.59.41,1.64.78-2.65.28-5.44.44-8.17.13-2.18.75-4.38.87-6.54.14-2.56-.34-5.38-.22-8.07s.78-5.37.43-8.04c-.15-1.11-1-2.39-1.08-3.51-.04-.45.19-.9.15-1.26-.29-2.71-1.5-6.77.84-8.87,1.29-1.15,2.13-.48,3.03.67,1.68,2.14.99,2.82,1.66,4.88.17.53,1.08,1.78,1.08,2.19v3.16Z"/>
  <path d="M34.95,103.53c.29,2.49.47,5.02.65,7.52.25,3.36.51,6.67.88,10.02.3,2.75,1.54,5.03,1.74,7.85.1,1.39.21,7.12-.17,8.11-.4,1.04-2.67,4.43-3.86,4.43-2.54,0-2.33-4.3-2.78-5.94-.79-2.88-.76-3.12-1.05-6.14-.15-1.58-1.01-3.79-1.04-5.28-.01-.77.51-1.29.62-1.95.32-2.05-.44-2.54-.85-4.14-1.63-6.39-4.06-13.11-5.17-19.44-.3-1.71-.24-3.39-.71-5.06.92.05,1.64,1.7,1.49,2.45-.09.42-.6.74-.61,1.14-.02.65,1.36,1.64,1.05,2.05-.07.09-.5-.14-.41.23,2.3-.03,2.07,2.82,2.55,4.53.95,3.37,1.73,6.17,2.56,9.64.25,1.06,1.11,2.64,1.2,3.61.05.56-.23,1.05-.17,1.46s.66.95.78,1.62c.25,1.38.03,2.85.37,4.42.7,3.22.93,6.9,1.96,10.02.16.47.51,1.75,1.09,1.75.95,0,.24-1.77.32-2.52.06-.54.39-.89.43-1.31.7-6.41-.94-13.7-1.29-20.15-.25-2.93-.17-6.08.44-8.93Z"/>
  <path d="M23.85,89.58c1.26-.4,1.49.66.22.87-.56,1.07-.88,1.39-1.52,2.29-1.15,1.58-.77,1.24-1.14,3-.21,1.01-.83,1.89-1.1,2.82-1.11,3.84.94,6.99,1.71,10.63,1.18,5.6.92,11.42,1.19,17.11.16,3.35.76,3.16-.39,6.58-.71,2.12.05,4.42-.05,6.6-2.06-.64-1.15-3.78-1.31-5.55-.09-1.01-.52-2.21-.62-3.3-.78-8.12.28-17.88-2.41-25.7-.14-.39-.54-.62-.62-.91-.51-1.75.79-5.82,1.51-7.55.64-1.55,3.14-6.21,4.54-6.9Z"/>
  <path d="M46.7,63.21c.11.11-.18,1.31-.27,1.58-.58,1.57-5.45,3.95-6.9,5.3-4.55,1.56-9.4,1.05-13.04-2.21-.58-.52-1.04-1.42-1.78-1.92-.84-.57-1.94-.74-2.8-1.34-1.3-.91-4.2-5.29-5.18-5.5-1.86-.41-1,1.62-.93,2.68.02.35-.25.72-.22,1.08.06.72,2.02,2.34,1.95,3.06,0,.1-.33.37-.53.32-.17-.04-2.38-1.71-2.55-2.02-.59-1.06-.23-1.88-.4-2.87s-.67-1.62-.62-2.81c.02-.63.31-2.32,1.01-2.51.16-.04,3.07.49,3.27.57,1.12.47,4.4,4.91,5.6,5.94,3.29,1.18,4.13,4,7.44,5.41,3.08,1.31,7,.93,9.85-.75.78-.46,5.68-4.45,6.11-4.01Z"/>
  <path d="M11.23,109.85c1.47.15,1.83.23,2.12,1.69.33,1.7.02,2.78.05,4.29.02,1.17.56,2.6.66,3.72.42,5.03-.1,12.96,1.73,17.44.19.47.66.77.79,1.17.17.56-.05,1.18.3,1.67.76,1.06,4.24,2.82,5.57,2.73.51-.04.83-.55,1.19-.36.81.41.23,1.09-.37,1.4-2.42-.3-4.1.09-6.31-1.23-1.93-1.15-3.57-4.08-3.97-6.27-.17-.92-.03-2.24-.29-3.2-.22-.82-.91-1.49-.96-2.48s.35-2.44.37-3.45c.12-5.76-.36-11.4-.88-17.11Z"/>
  <path d="M43.22,99.6c.16.03.23-.05.22-.22-.1-.43.07-1.12,0-1.63-.04-.27-.81-3.46.22-2.73.08.06.92,1.65.95,1.79.13.54-.12.87-.06,1.33.5,4.49.65,6.45.21,10.93-.13,1.32-.05,2.76-.22,4.14-.14,1.14-.62-.25-.66-.86-.24-3.54.17-5.08-1.19-8.61-1.84-4.79-3.44-7.44-4.39-12.82-.3-1.71-1.44-11.08-.84-12.03.3-.47.66-.07.86.24,1.41,2.14,1.48,6.87,1.9,9.43.5,2.99,1.44,8.54,3.01,11.04Z"/>
  <path d="M32.26,80.89c.66-.22,2,.24,2.31.89.35.75.08,1.95.22,2.83.26,1.65,1.05,3.42,1.22,5.09.29,2.88-.48,5.98-.19,8.91.1.44-.98.75-1.21.71-.33-.06-1.48-2.84-1.56-3.38-.46-3.19-.05-6.46-.81-9.87-.25-1.1-1.12-2.8-.89-3.7.07-.29.64-1.4.92-1.49Z"/>
  <path d="M57.14,110.72c.86-.07.54-.04.66.53.29,1.33,1.16,4.28.82,5.42-.19.63-.77.83-1.1.1-.25-.57-.34-2.85-.38-3.65-.25-.95-.25-1.75,0-2.4Z"/>
  <path d="M34.95,103.53c-.4,3.04-.61,5.83-.44,8.93-.36-.23-.22-.83-.22-1.2-.03-2.49.22-4.97.24-7.41,0-.72-.7-4,.09-4.25,1.47-.46.39,2.14.34,2.52-.07.47.05.97-.01,1.4Z"/>
  <path d="M57.14,113.11l-1.11-6c-.07-.23.18-.76.34-.76.25,0,1.21,3.19,1.22,3.6,0,.29-.3.24-.45.75-.19.62-.04,1.61,0,2.4Z"/>
  <path d="M23.85,89.58c1.47-.73,2.27.29,1.96,1.74-.6.17-.41-.34-.63-.55-.36-.33-.63-.37-1.11-.32.31-.59.96-.95-.22-.87Z"/>
  <path d="M43.43,99.39c.04.16.61.47.43.87-.31-.08-.49-.4-.65-.65l.22-.22Z"/>
  <path d="M71.51,58.85c-.05-.07-.34-.02-.22-.43.79.14,2.16-.48,1.52.65l.87-.22c-.02.84-1.31.67-1.74.43.24-.19.1-.33-.44-.44Z"/>
  <path d="M85.22,56.02c.22.22-.42.87-.65.65s.42-.87.65-.65Z"/>
</svg>